<svg xmlns="http://www.w3.org/2000/svg" width="32" height="32" viewBox="0 0 58 64"><defs><linearGradient id="a" x1="50%" x2="50%" y1="0%" y2="100%"><stop offset="0%" stop-color="#4989F9"/><stop offset="100%" stop-color="#2B71E9"/></linearGradient></defs><g fill="none" fill-rule="evenodd"><path fill="url(#a)" d="M0 4.007A3.998 3.998 0 0 1 3.998 0H35l15 15v41.007A4 4 0 0 1 45.993 60H4.007A4.008 4.008 0 0 1 0 55.993V4.007z" transform="translate(11 6)"/><path fill="#EBF2FE" d="M19 25h34v4H19v-4zm0 8h34v4H19v-4zm0 8h34v4H19v-4zm0 8h19v4H19v-4z"/><path fill="#A0C3FF" d="m46 6 15 15H46z"/><path fill="#06317A" opacity=".417" style="mix-blend-mode:darken" d="m35 15 15 15V15z" transform="translate(11 6)"/></g></svg>